G04 #@! TF.GenerationSoftware,KiCad,Pcbnew,(5.0.0)*
G04 #@! TF.CreationDate,2018-08-08T21:20:56+01:00*
G04 #@! TF.ProjectId,armm0,61726D6D302E6B696361645F70636200,rev?*
G04 #@! TF.SameCoordinates,Original*
G04 #@! TF.FileFunction,Soldermask,Top*
G04 #@! TF.FilePolarity,Negative*
%FSLAX46Y46*%
G04 Gerber Fmt 4.6, Leading zero omitted, Abs format (unit mm)*
G04 Created by KiCad (PCBNEW (5.0.0)) date 08/08/18 21:20:56*
%MOMM*%
%LPD*%
G01*
G04 APERTURE LIST*
%ADD10R,1.727200X1.727200*%
%ADD11O,1.727200X1.727200*%
%ADD12C,0.100000*%
%ADD13C,0.950000*%
%ADD14R,1.700000X1.700000*%
%ADD15O,1.700000X1.700000*%
%ADD16C,1.425000*%
%ADD17R,0.450000X1.450000*%
G04 APERTURE END LIST*
D10*
G04 #@! TO.C,J1*
X78740000Y-46355000D03*
D11*
X81280000Y-46355000D03*
X78740000Y-48895000D03*
X81280000Y-48895000D03*
X78740000Y-51435000D03*
X81280000Y-51435000D03*
X78740000Y-53975000D03*
X81280000Y-53975000D03*
X78740000Y-56515000D03*
X81280000Y-56515000D03*
X78740000Y-59055000D03*
X81280000Y-59055000D03*
X78740000Y-61595000D03*
X81280000Y-61595000D03*
X78740000Y-64135000D03*
X81280000Y-64135000D03*
X78740000Y-66675000D03*
X81280000Y-66675000D03*
X78740000Y-69215000D03*
X81280000Y-69215000D03*
G04 #@! TD*
D12*
G04 #@! TO.C,R6*
G36*
X95510779Y-49641144D02*
X95533834Y-49644563D01*
X95556443Y-49650227D01*
X95578387Y-49658079D01*
X95599457Y-49668044D01*
X95619448Y-49680026D01*
X95638168Y-49693910D01*
X95655438Y-49709562D01*
X95671090Y-49726832D01*
X95684974Y-49745552D01*
X95696956Y-49765543D01*
X95706921Y-49786613D01*
X95714773Y-49808557D01*
X95720437Y-49831166D01*
X95723856Y-49854221D01*
X95725000Y-49877500D01*
X95725000Y-50452500D01*
X95723856Y-50475779D01*
X95720437Y-50498834D01*
X95714773Y-50521443D01*
X95706921Y-50543387D01*
X95696956Y-50564457D01*
X95684974Y-50584448D01*
X95671090Y-50603168D01*
X95655438Y-50620438D01*
X95638168Y-50636090D01*
X95619448Y-50649974D01*
X95599457Y-50661956D01*
X95578387Y-50671921D01*
X95556443Y-50679773D01*
X95533834Y-50685437D01*
X95510779Y-50688856D01*
X95487500Y-50690000D01*
X95012500Y-50690000D01*
X94989221Y-50688856D01*
X94966166Y-50685437D01*
X94943557Y-50679773D01*
X94921613Y-50671921D01*
X94900543Y-50661956D01*
X94880552Y-50649974D01*
X94861832Y-50636090D01*
X94844562Y-50620438D01*
X94828910Y-50603168D01*
X94815026Y-50584448D01*
X94803044Y-50564457D01*
X94793079Y-50543387D01*
X94785227Y-50521443D01*
X94779563Y-50498834D01*
X94776144Y-50475779D01*
X94775000Y-50452500D01*
X94775000Y-49877500D01*
X94776144Y-49854221D01*
X94779563Y-49831166D01*
X94785227Y-49808557D01*
X94793079Y-49786613D01*
X94803044Y-49765543D01*
X94815026Y-49745552D01*
X94828910Y-49726832D01*
X94844562Y-49709562D01*
X94861832Y-49693910D01*
X94880552Y-49680026D01*
X94900543Y-49668044D01*
X94921613Y-49658079D01*
X94943557Y-49650227D01*
X94966166Y-49644563D01*
X94989221Y-49641144D01*
X95012500Y-49640000D01*
X95487500Y-49640000D01*
X95510779Y-49641144D01*
X95510779Y-49641144D01*
G37*
D13*
X95250000Y-50165000D03*
D12*
G36*
X95510779Y-51391144D02*
X95533834Y-51394563D01*
X95556443Y-51400227D01*
X95578387Y-51408079D01*
X95599457Y-51418044D01*
X95619448Y-51430026D01*
X95638168Y-51443910D01*
X95655438Y-51459562D01*
X95671090Y-51476832D01*
X95684974Y-51495552D01*
X95696956Y-51515543D01*
X95706921Y-51536613D01*
X95714773Y-51558557D01*
X95720437Y-51581166D01*
X95723856Y-51604221D01*
X95725000Y-51627500D01*
X95725000Y-52202500D01*
X95723856Y-52225779D01*
X95720437Y-52248834D01*
X95714773Y-52271443D01*
X95706921Y-52293387D01*
X95696956Y-52314457D01*
X95684974Y-52334448D01*
X95671090Y-52353168D01*
X95655438Y-52370438D01*
X95638168Y-52386090D01*
X95619448Y-52399974D01*
X95599457Y-52411956D01*
X95578387Y-52421921D01*
X95556443Y-52429773D01*
X95533834Y-52435437D01*
X95510779Y-52438856D01*
X95487500Y-52440000D01*
X95012500Y-52440000D01*
X94989221Y-52438856D01*
X94966166Y-52435437D01*
X94943557Y-52429773D01*
X94921613Y-52421921D01*
X94900543Y-52411956D01*
X94880552Y-52399974D01*
X94861832Y-52386090D01*
X94844562Y-52370438D01*
X94828910Y-52353168D01*
X94815026Y-52334448D01*
X94803044Y-52314457D01*
X94793079Y-52293387D01*
X94785227Y-52271443D01*
X94779563Y-52248834D01*
X94776144Y-52225779D01*
X94775000Y-52202500D01*
X94775000Y-51627500D01*
X94776144Y-51604221D01*
X94779563Y-51581166D01*
X94785227Y-51558557D01*
X94793079Y-51536613D01*
X94803044Y-51515543D01*
X94815026Y-51495552D01*
X94828910Y-51476832D01*
X94844562Y-51459562D01*
X94861832Y-51443910D01*
X94880552Y-51430026D01*
X94900543Y-51418044D01*
X94921613Y-51408079D01*
X94943557Y-51400227D01*
X94966166Y-51394563D01*
X94989221Y-51391144D01*
X95012500Y-51390000D01*
X95487500Y-51390000D01*
X95510779Y-51391144D01*
X95510779Y-51391144D01*
G37*
D13*
X95250000Y-51915000D03*
G04 #@! TD*
D12*
G04 #@! TO.C,R5*
G36*
X97415779Y-51391144D02*
X97438834Y-51394563D01*
X97461443Y-51400227D01*
X97483387Y-51408079D01*
X97504457Y-51418044D01*
X97524448Y-51430026D01*
X97543168Y-51443910D01*
X97560438Y-51459562D01*
X97576090Y-51476832D01*
X97589974Y-51495552D01*
X97601956Y-51515543D01*
X97611921Y-51536613D01*
X97619773Y-51558557D01*
X97625437Y-51581166D01*
X97628856Y-51604221D01*
X97630000Y-51627500D01*
X97630000Y-52202500D01*
X97628856Y-52225779D01*
X97625437Y-52248834D01*
X97619773Y-52271443D01*
X97611921Y-52293387D01*
X97601956Y-52314457D01*
X97589974Y-52334448D01*
X97576090Y-52353168D01*
X97560438Y-52370438D01*
X97543168Y-52386090D01*
X97524448Y-52399974D01*
X97504457Y-52411956D01*
X97483387Y-52421921D01*
X97461443Y-52429773D01*
X97438834Y-52435437D01*
X97415779Y-52438856D01*
X97392500Y-52440000D01*
X96917500Y-52440000D01*
X96894221Y-52438856D01*
X96871166Y-52435437D01*
X96848557Y-52429773D01*
X96826613Y-52421921D01*
X96805543Y-52411956D01*
X96785552Y-52399974D01*
X96766832Y-52386090D01*
X96749562Y-52370438D01*
X96733910Y-52353168D01*
X96720026Y-52334448D01*
X96708044Y-52314457D01*
X96698079Y-52293387D01*
X96690227Y-52271443D01*
X96684563Y-52248834D01*
X96681144Y-52225779D01*
X96680000Y-52202500D01*
X96680000Y-51627500D01*
X96681144Y-51604221D01*
X96684563Y-51581166D01*
X96690227Y-51558557D01*
X96698079Y-51536613D01*
X96708044Y-51515543D01*
X96720026Y-51495552D01*
X96733910Y-51476832D01*
X96749562Y-51459562D01*
X96766832Y-51443910D01*
X96785552Y-51430026D01*
X96805543Y-51418044D01*
X96826613Y-51408079D01*
X96848557Y-51400227D01*
X96871166Y-51394563D01*
X96894221Y-51391144D01*
X96917500Y-51390000D01*
X97392500Y-51390000D01*
X97415779Y-51391144D01*
X97415779Y-51391144D01*
G37*
D13*
X97155000Y-51915000D03*
D12*
G36*
X97415779Y-49641144D02*
X97438834Y-49644563D01*
X97461443Y-49650227D01*
X97483387Y-49658079D01*
X97504457Y-49668044D01*
X97524448Y-49680026D01*
X97543168Y-49693910D01*
X97560438Y-49709562D01*
X97576090Y-49726832D01*
X97589974Y-49745552D01*
X97601956Y-49765543D01*
X97611921Y-49786613D01*
X97619773Y-49808557D01*
X97625437Y-49831166D01*
X97628856Y-49854221D01*
X97630000Y-49877500D01*
X97630000Y-50452500D01*
X97628856Y-50475779D01*
X97625437Y-50498834D01*
X97619773Y-50521443D01*
X97611921Y-50543387D01*
X97601956Y-50564457D01*
X97589974Y-50584448D01*
X97576090Y-50603168D01*
X97560438Y-50620438D01*
X97543168Y-50636090D01*
X97524448Y-50649974D01*
X97504457Y-50661956D01*
X97483387Y-50671921D01*
X97461443Y-50679773D01*
X97438834Y-50685437D01*
X97415779Y-50688856D01*
X97392500Y-50690000D01*
X96917500Y-50690000D01*
X96894221Y-50688856D01*
X96871166Y-50685437D01*
X96848557Y-50679773D01*
X96826613Y-50671921D01*
X96805543Y-50661956D01*
X96785552Y-50649974D01*
X96766832Y-50636090D01*
X96749562Y-50620438D01*
X96733910Y-50603168D01*
X96720026Y-50584448D01*
X96708044Y-50564457D01*
X96698079Y-50543387D01*
X96690227Y-50521443D01*
X96684563Y-50498834D01*
X96681144Y-50475779D01*
X96680000Y-50452500D01*
X96680000Y-49877500D01*
X96681144Y-49854221D01*
X96684563Y-49831166D01*
X96690227Y-49808557D01*
X96698079Y-49786613D01*
X96708044Y-49765543D01*
X96720026Y-49745552D01*
X96733910Y-49726832D01*
X96749562Y-49709562D01*
X96766832Y-49693910D01*
X96785552Y-49680026D01*
X96805543Y-49668044D01*
X96826613Y-49658079D01*
X96848557Y-49650227D01*
X96871166Y-49644563D01*
X96894221Y-49641144D01*
X96917500Y-49640000D01*
X97392500Y-49640000D01*
X97415779Y-49641144D01*
X97415779Y-49641144D01*
G37*
D13*
X97155000Y-50165000D03*
G04 #@! TD*
D12*
G04 #@! TO.C,R4*
G36*
X99320779Y-49641144D02*
X99343834Y-49644563D01*
X99366443Y-49650227D01*
X99388387Y-49658079D01*
X99409457Y-49668044D01*
X99429448Y-49680026D01*
X99448168Y-49693910D01*
X99465438Y-49709562D01*
X99481090Y-49726832D01*
X99494974Y-49745552D01*
X99506956Y-49765543D01*
X99516921Y-49786613D01*
X99524773Y-49808557D01*
X99530437Y-49831166D01*
X99533856Y-49854221D01*
X99535000Y-49877500D01*
X99535000Y-50452500D01*
X99533856Y-50475779D01*
X99530437Y-50498834D01*
X99524773Y-50521443D01*
X99516921Y-50543387D01*
X99506956Y-50564457D01*
X99494974Y-50584448D01*
X99481090Y-50603168D01*
X99465438Y-50620438D01*
X99448168Y-50636090D01*
X99429448Y-50649974D01*
X99409457Y-50661956D01*
X99388387Y-50671921D01*
X99366443Y-50679773D01*
X99343834Y-50685437D01*
X99320779Y-50688856D01*
X99297500Y-50690000D01*
X98822500Y-50690000D01*
X98799221Y-50688856D01*
X98776166Y-50685437D01*
X98753557Y-50679773D01*
X98731613Y-50671921D01*
X98710543Y-50661956D01*
X98690552Y-50649974D01*
X98671832Y-50636090D01*
X98654562Y-50620438D01*
X98638910Y-50603168D01*
X98625026Y-50584448D01*
X98613044Y-50564457D01*
X98603079Y-50543387D01*
X98595227Y-50521443D01*
X98589563Y-50498834D01*
X98586144Y-50475779D01*
X98585000Y-50452500D01*
X98585000Y-49877500D01*
X98586144Y-49854221D01*
X98589563Y-49831166D01*
X98595227Y-49808557D01*
X98603079Y-49786613D01*
X98613044Y-49765543D01*
X98625026Y-49745552D01*
X98638910Y-49726832D01*
X98654562Y-49709562D01*
X98671832Y-49693910D01*
X98690552Y-49680026D01*
X98710543Y-49668044D01*
X98731613Y-49658079D01*
X98753557Y-49650227D01*
X98776166Y-49644563D01*
X98799221Y-49641144D01*
X98822500Y-49640000D01*
X99297500Y-49640000D01*
X99320779Y-49641144D01*
X99320779Y-49641144D01*
G37*
D13*
X99060000Y-50165000D03*
D12*
G36*
X99320779Y-51391144D02*
X99343834Y-51394563D01*
X99366443Y-51400227D01*
X99388387Y-51408079D01*
X99409457Y-51418044D01*
X99429448Y-51430026D01*
X99448168Y-51443910D01*
X99465438Y-51459562D01*
X99481090Y-51476832D01*
X99494974Y-51495552D01*
X99506956Y-51515543D01*
X99516921Y-51536613D01*
X99524773Y-51558557D01*
X99530437Y-51581166D01*
X99533856Y-51604221D01*
X99535000Y-51627500D01*
X99535000Y-52202500D01*
X99533856Y-52225779D01*
X99530437Y-52248834D01*
X99524773Y-52271443D01*
X99516921Y-52293387D01*
X99506956Y-52314457D01*
X99494974Y-52334448D01*
X99481090Y-52353168D01*
X99465438Y-52370438D01*
X99448168Y-52386090D01*
X99429448Y-52399974D01*
X99409457Y-52411956D01*
X99388387Y-52421921D01*
X99366443Y-52429773D01*
X99343834Y-52435437D01*
X99320779Y-52438856D01*
X99297500Y-52440000D01*
X98822500Y-52440000D01*
X98799221Y-52438856D01*
X98776166Y-52435437D01*
X98753557Y-52429773D01*
X98731613Y-52421921D01*
X98710543Y-52411956D01*
X98690552Y-52399974D01*
X98671832Y-52386090D01*
X98654562Y-52370438D01*
X98638910Y-52353168D01*
X98625026Y-52334448D01*
X98613044Y-52314457D01*
X98603079Y-52293387D01*
X98595227Y-52271443D01*
X98589563Y-52248834D01*
X98586144Y-52225779D01*
X98585000Y-52202500D01*
X98585000Y-51627500D01*
X98586144Y-51604221D01*
X98589563Y-51581166D01*
X98595227Y-51558557D01*
X98603079Y-51536613D01*
X98613044Y-51515543D01*
X98625026Y-51495552D01*
X98638910Y-51476832D01*
X98654562Y-51459562D01*
X98671832Y-51443910D01*
X98690552Y-51430026D01*
X98710543Y-51418044D01*
X98731613Y-51408079D01*
X98753557Y-51400227D01*
X98776166Y-51394563D01*
X98799221Y-51391144D01*
X98822500Y-51390000D01*
X99297500Y-51390000D01*
X99320779Y-51391144D01*
X99320779Y-51391144D01*
G37*
D13*
X99060000Y-51915000D03*
G04 #@! TD*
D12*
G04 #@! TO.C,R7*
G36*
X93605779Y-51391144D02*
X93628834Y-51394563D01*
X93651443Y-51400227D01*
X93673387Y-51408079D01*
X93694457Y-51418044D01*
X93714448Y-51430026D01*
X93733168Y-51443910D01*
X93750438Y-51459562D01*
X93766090Y-51476832D01*
X93779974Y-51495552D01*
X93791956Y-51515543D01*
X93801921Y-51536613D01*
X93809773Y-51558557D01*
X93815437Y-51581166D01*
X93818856Y-51604221D01*
X93820000Y-51627500D01*
X93820000Y-52202500D01*
X93818856Y-52225779D01*
X93815437Y-52248834D01*
X93809773Y-52271443D01*
X93801921Y-52293387D01*
X93791956Y-52314457D01*
X93779974Y-52334448D01*
X93766090Y-52353168D01*
X93750438Y-52370438D01*
X93733168Y-52386090D01*
X93714448Y-52399974D01*
X93694457Y-52411956D01*
X93673387Y-52421921D01*
X93651443Y-52429773D01*
X93628834Y-52435437D01*
X93605779Y-52438856D01*
X93582500Y-52440000D01*
X93107500Y-52440000D01*
X93084221Y-52438856D01*
X93061166Y-52435437D01*
X93038557Y-52429773D01*
X93016613Y-52421921D01*
X92995543Y-52411956D01*
X92975552Y-52399974D01*
X92956832Y-52386090D01*
X92939562Y-52370438D01*
X92923910Y-52353168D01*
X92910026Y-52334448D01*
X92898044Y-52314457D01*
X92888079Y-52293387D01*
X92880227Y-52271443D01*
X92874563Y-52248834D01*
X92871144Y-52225779D01*
X92870000Y-52202500D01*
X92870000Y-51627500D01*
X92871144Y-51604221D01*
X92874563Y-51581166D01*
X92880227Y-51558557D01*
X92888079Y-51536613D01*
X92898044Y-51515543D01*
X92910026Y-51495552D01*
X92923910Y-51476832D01*
X92939562Y-51459562D01*
X92956832Y-51443910D01*
X92975552Y-51430026D01*
X92995543Y-51418044D01*
X93016613Y-51408079D01*
X93038557Y-51400227D01*
X93061166Y-51394563D01*
X93084221Y-51391144D01*
X93107500Y-51390000D01*
X93582500Y-51390000D01*
X93605779Y-51391144D01*
X93605779Y-51391144D01*
G37*
D13*
X93345000Y-51915000D03*
D12*
G36*
X93605779Y-49641144D02*
X93628834Y-49644563D01*
X93651443Y-49650227D01*
X93673387Y-49658079D01*
X93694457Y-49668044D01*
X93714448Y-49680026D01*
X93733168Y-49693910D01*
X93750438Y-49709562D01*
X93766090Y-49726832D01*
X93779974Y-49745552D01*
X93791956Y-49765543D01*
X93801921Y-49786613D01*
X93809773Y-49808557D01*
X93815437Y-49831166D01*
X93818856Y-49854221D01*
X93820000Y-49877500D01*
X93820000Y-50452500D01*
X93818856Y-50475779D01*
X93815437Y-50498834D01*
X93809773Y-50521443D01*
X93801921Y-50543387D01*
X93791956Y-50564457D01*
X93779974Y-50584448D01*
X93766090Y-50603168D01*
X93750438Y-50620438D01*
X93733168Y-50636090D01*
X93714448Y-50649974D01*
X93694457Y-50661956D01*
X93673387Y-50671921D01*
X93651443Y-50679773D01*
X93628834Y-50685437D01*
X93605779Y-50688856D01*
X93582500Y-50690000D01*
X93107500Y-50690000D01*
X93084221Y-50688856D01*
X93061166Y-50685437D01*
X93038557Y-50679773D01*
X93016613Y-50671921D01*
X92995543Y-50661956D01*
X92975552Y-50649974D01*
X92956832Y-50636090D01*
X92939562Y-50620438D01*
X92923910Y-50603168D01*
X92910026Y-50584448D01*
X92898044Y-50564457D01*
X92888079Y-50543387D01*
X92880227Y-50521443D01*
X92874563Y-50498834D01*
X92871144Y-50475779D01*
X92870000Y-50452500D01*
X92870000Y-49877500D01*
X92871144Y-49854221D01*
X92874563Y-49831166D01*
X92880227Y-49808557D01*
X92888079Y-49786613D01*
X92898044Y-49765543D01*
X92910026Y-49745552D01*
X92923910Y-49726832D01*
X92939562Y-49709562D01*
X92956832Y-49693910D01*
X92975552Y-49680026D01*
X92995543Y-49668044D01*
X93016613Y-49658079D01*
X93038557Y-49650227D01*
X93061166Y-49644563D01*
X93084221Y-49641144D01*
X93107500Y-49640000D01*
X93582500Y-49640000D01*
X93605779Y-49641144D01*
X93605779Y-49641144D01*
G37*
D13*
X93345000Y-50165000D03*
G04 #@! TD*
D14*
G04 #@! TO.C,J8*
X88265000Y-40005000D03*
D15*
X88265000Y-42545000D03*
X88265000Y-45085000D03*
G04 #@! TD*
D12*
G04 #@! TO.C,D2*
G36*
X94032004Y-39131204D02*
X94056273Y-39134804D01*
X94080071Y-39140765D01*
X94103171Y-39149030D01*
X94125349Y-39159520D01*
X94146393Y-39172133D01*
X94166098Y-39186747D01*
X94184277Y-39203223D01*
X94200753Y-39221402D01*
X94215367Y-39241107D01*
X94227980Y-39262151D01*
X94238470Y-39284329D01*
X94246735Y-39307429D01*
X94252696Y-39331227D01*
X94256296Y-39355496D01*
X94257500Y-39380000D01*
X94257500Y-40630000D01*
X94256296Y-40654504D01*
X94252696Y-40678773D01*
X94246735Y-40702571D01*
X94238470Y-40725671D01*
X94227980Y-40747849D01*
X94215367Y-40768893D01*
X94200753Y-40788598D01*
X94184277Y-40806777D01*
X94166098Y-40823253D01*
X94146393Y-40837867D01*
X94125349Y-40850480D01*
X94103171Y-40860970D01*
X94080071Y-40869235D01*
X94056273Y-40875196D01*
X94032004Y-40878796D01*
X94007500Y-40880000D01*
X93082500Y-40880000D01*
X93057996Y-40878796D01*
X93033727Y-40875196D01*
X93009929Y-40869235D01*
X92986829Y-40860970D01*
X92964651Y-40850480D01*
X92943607Y-40837867D01*
X92923902Y-40823253D01*
X92905723Y-40806777D01*
X92889247Y-40788598D01*
X92874633Y-40768893D01*
X92862020Y-40747849D01*
X92851530Y-40725671D01*
X92843265Y-40702571D01*
X92837304Y-40678773D01*
X92833704Y-40654504D01*
X92832500Y-40630000D01*
X92832500Y-39380000D01*
X92833704Y-39355496D01*
X92837304Y-39331227D01*
X92843265Y-39307429D01*
X92851530Y-39284329D01*
X92862020Y-39262151D01*
X92874633Y-39241107D01*
X92889247Y-39221402D01*
X92905723Y-39203223D01*
X92923902Y-39186747D01*
X92943607Y-39172133D01*
X92964651Y-39159520D01*
X92986829Y-39149030D01*
X93009929Y-39140765D01*
X93033727Y-39134804D01*
X93057996Y-39131204D01*
X93082500Y-39130000D01*
X94007500Y-39130000D01*
X94032004Y-39131204D01*
X94032004Y-39131204D01*
G37*
D16*
X93545000Y-40005000D03*
D12*
G36*
X97007004Y-39131204D02*
X97031273Y-39134804D01*
X97055071Y-39140765D01*
X97078171Y-39149030D01*
X97100349Y-39159520D01*
X97121393Y-39172133D01*
X97141098Y-39186747D01*
X97159277Y-39203223D01*
X97175753Y-39221402D01*
X97190367Y-39241107D01*
X97202980Y-39262151D01*
X97213470Y-39284329D01*
X97221735Y-39307429D01*
X97227696Y-39331227D01*
X97231296Y-39355496D01*
X97232500Y-39380000D01*
X97232500Y-40630000D01*
X97231296Y-40654504D01*
X97227696Y-40678773D01*
X97221735Y-40702571D01*
X97213470Y-40725671D01*
X97202980Y-40747849D01*
X97190367Y-40768893D01*
X97175753Y-40788598D01*
X97159277Y-40806777D01*
X97141098Y-40823253D01*
X97121393Y-40837867D01*
X97100349Y-40850480D01*
X97078171Y-40860970D01*
X97055071Y-40869235D01*
X97031273Y-40875196D01*
X97007004Y-40878796D01*
X96982500Y-40880000D01*
X96057500Y-40880000D01*
X96032996Y-40878796D01*
X96008727Y-40875196D01*
X95984929Y-40869235D01*
X95961829Y-40860970D01*
X95939651Y-40850480D01*
X95918607Y-40837867D01*
X95898902Y-40823253D01*
X95880723Y-40806777D01*
X95864247Y-40788598D01*
X95849633Y-40768893D01*
X95837020Y-40747849D01*
X95826530Y-40725671D01*
X95818265Y-40702571D01*
X95812304Y-40678773D01*
X95808704Y-40654504D01*
X95807500Y-40630000D01*
X95807500Y-39380000D01*
X95808704Y-39355496D01*
X95812304Y-39331227D01*
X95818265Y-39307429D01*
X95826530Y-39284329D01*
X95837020Y-39262151D01*
X95849633Y-39241107D01*
X95864247Y-39221402D01*
X95880723Y-39203223D01*
X95898902Y-39186747D01*
X95918607Y-39172133D01*
X95939651Y-39159520D01*
X95961829Y-39149030D01*
X95984929Y-39140765D01*
X96008727Y-39134804D01*
X96032996Y-39131204D01*
X96057500Y-39130000D01*
X96982500Y-39130000D01*
X97007004Y-39131204D01*
X97007004Y-39131204D01*
G37*
D16*
X96520000Y-40005000D03*
G04 #@! TD*
D12*
G04 #@! TO.C,D1*
G36*
X80297004Y-38496204D02*
X80321273Y-38499804D01*
X80345071Y-38505765D01*
X80368171Y-38514030D01*
X80390349Y-38524520D01*
X80411393Y-38537133D01*
X80431098Y-38551747D01*
X80449277Y-38568223D01*
X80465753Y-38586402D01*
X80480367Y-38606107D01*
X80492980Y-38627151D01*
X80503470Y-38649329D01*
X80511735Y-38672429D01*
X80517696Y-38696227D01*
X80521296Y-38720496D01*
X80522500Y-38745000D01*
X80522500Y-39995000D01*
X80521296Y-40019504D01*
X80517696Y-40043773D01*
X80511735Y-40067571D01*
X80503470Y-40090671D01*
X80492980Y-40112849D01*
X80480367Y-40133893D01*
X80465753Y-40153598D01*
X80449277Y-40171777D01*
X80431098Y-40188253D01*
X80411393Y-40202867D01*
X80390349Y-40215480D01*
X80368171Y-40225970D01*
X80345071Y-40234235D01*
X80321273Y-40240196D01*
X80297004Y-40243796D01*
X80272500Y-40245000D01*
X79347500Y-40245000D01*
X79322996Y-40243796D01*
X79298727Y-40240196D01*
X79274929Y-40234235D01*
X79251829Y-40225970D01*
X79229651Y-40215480D01*
X79208607Y-40202867D01*
X79188902Y-40188253D01*
X79170723Y-40171777D01*
X79154247Y-40153598D01*
X79139633Y-40133893D01*
X79127020Y-40112849D01*
X79116530Y-40090671D01*
X79108265Y-40067571D01*
X79102304Y-40043773D01*
X79098704Y-40019504D01*
X79097500Y-39995000D01*
X79097500Y-38745000D01*
X79098704Y-38720496D01*
X79102304Y-38696227D01*
X79108265Y-38672429D01*
X79116530Y-38649329D01*
X79127020Y-38627151D01*
X79139633Y-38606107D01*
X79154247Y-38586402D01*
X79170723Y-38568223D01*
X79188902Y-38551747D01*
X79208607Y-38537133D01*
X79229651Y-38524520D01*
X79251829Y-38514030D01*
X79274929Y-38505765D01*
X79298727Y-38499804D01*
X79322996Y-38496204D01*
X79347500Y-38495000D01*
X80272500Y-38495000D01*
X80297004Y-38496204D01*
X80297004Y-38496204D01*
G37*
D16*
X79810000Y-39370000D03*
D12*
G36*
X77322004Y-38496204D02*
X77346273Y-38499804D01*
X77370071Y-38505765D01*
X77393171Y-38514030D01*
X77415349Y-38524520D01*
X77436393Y-38537133D01*
X77456098Y-38551747D01*
X77474277Y-38568223D01*
X77490753Y-38586402D01*
X77505367Y-38606107D01*
X77517980Y-38627151D01*
X77528470Y-38649329D01*
X77536735Y-38672429D01*
X77542696Y-38696227D01*
X77546296Y-38720496D01*
X77547500Y-38745000D01*
X77547500Y-39995000D01*
X77546296Y-40019504D01*
X77542696Y-40043773D01*
X77536735Y-40067571D01*
X77528470Y-40090671D01*
X77517980Y-40112849D01*
X77505367Y-40133893D01*
X77490753Y-40153598D01*
X77474277Y-40171777D01*
X77456098Y-40188253D01*
X77436393Y-40202867D01*
X77415349Y-40215480D01*
X77393171Y-40225970D01*
X77370071Y-40234235D01*
X77346273Y-40240196D01*
X77322004Y-40243796D01*
X77297500Y-40245000D01*
X76372500Y-40245000D01*
X76347996Y-40243796D01*
X76323727Y-40240196D01*
X76299929Y-40234235D01*
X76276829Y-40225970D01*
X76254651Y-40215480D01*
X76233607Y-40202867D01*
X76213902Y-40188253D01*
X76195723Y-40171777D01*
X76179247Y-40153598D01*
X76164633Y-40133893D01*
X76152020Y-40112849D01*
X76141530Y-40090671D01*
X76133265Y-40067571D01*
X76127304Y-40043773D01*
X76123704Y-40019504D01*
X76122500Y-39995000D01*
X76122500Y-38745000D01*
X76123704Y-38720496D01*
X76127304Y-38696227D01*
X76133265Y-38672429D01*
X76141530Y-38649329D01*
X76152020Y-38627151D01*
X76164633Y-38606107D01*
X76179247Y-38586402D01*
X76195723Y-38568223D01*
X76213902Y-38551747D01*
X76233607Y-38537133D01*
X76254651Y-38524520D01*
X76276829Y-38514030D01*
X76299929Y-38505765D01*
X76323727Y-38499804D01*
X76347996Y-38496204D01*
X76372500Y-38495000D01*
X77297500Y-38495000D01*
X77322004Y-38496204D01*
X77322004Y-38496204D01*
G37*
D16*
X76835000Y-39370000D03*
G04 #@! TD*
D12*
G04 #@! TO.C,D3*
G36*
X94032004Y-41671204D02*
X94056273Y-41674804D01*
X94080071Y-41680765D01*
X94103171Y-41689030D01*
X94125349Y-41699520D01*
X94146393Y-41712133D01*
X94166098Y-41726747D01*
X94184277Y-41743223D01*
X94200753Y-41761402D01*
X94215367Y-41781107D01*
X94227980Y-41802151D01*
X94238470Y-41824329D01*
X94246735Y-41847429D01*
X94252696Y-41871227D01*
X94256296Y-41895496D01*
X94257500Y-41920000D01*
X94257500Y-43170000D01*
X94256296Y-43194504D01*
X94252696Y-43218773D01*
X94246735Y-43242571D01*
X94238470Y-43265671D01*
X94227980Y-43287849D01*
X94215367Y-43308893D01*
X94200753Y-43328598D01*
X94184277Y-43346777D01*
X94166098Y-43363253D01*
X94146393Y-43377867D01*
X94125349Y-43390480D01*
X94103171Y-43400970D01*
X94080071Y-43409235D01*
X94056273Y-43415196D01*
X94032004Y-43418796D01*
X94007500Y-43420000D01*
X93082500Y-43420000D01*
X93057996Y-43418796D01*
X93033727Y-43415196D01*
X93009929Y-43409235D01*
X92986829Y-43400970D01*
X92964651Y-43390480D01*
X92943607Y-43377867D01*
X92923902Y-43363253D01*
X92905723Y-43346777D01*
X92889247Y-43328598D01*
X92874633Y-43308893D01*
X92862020Y-43287849D01*
X92851530Y-43265671D01*
X92843265Y-43242571D01*
X92837304Y-43218773D01*
X92833704Y-43194504D01*
X92832500Y-43170000D01*
X92832500Y-41920000D01*
X92833704Y-41895496D01*
X92837304Y-41871227D01*
X92843265Y-41847429D01*
X92851530Y-41824329D01*
X92862020Y-41802151D01*
X92874633Y-41781107D01*
X92889247Y-41761402D01*
X92905723Y-41743223D01*
X92923902Y-41726747D01*
X92943607Y-41712133D01*
X92964651Y-41699520D01*
X92986829Y-41689030D01*
X93009929Y-41680765D01*
X93033727Y-41674804D01*
X93057996Y-41671204D01*
X93082500Y-41670000D01*
X94007500Y-41670000D01*
X94032004Y-41671204D01*
X94032004Y-41671204D01*
G37*
D16*
X93545000Y-42545000D03*
D12*
G36*
X97007004Y-41671204D02*
X97031273Y-41674804D01*
X97055071Y-41680765D01*
X97078171Y-41689030D01*
X97100349Y-41699520D01*
X97121393Y-41712133D01*
X97141098Y-41726747D01*
X97159277Y-41743223D01*
X97175753Y-41761402D01*
X97190367Y-41781107D01*
X97202980Y-41802151D01*
X97213470Y-41824329D01*
X97221735Y-41847429D01*
X97227696Y-41871227D01*
X97231296Y-41895496D01*
X97232500Y-41920000D01*
X97232500Y-43170000D01*
X97231296Y-43194504D01*
X97227696Y-43218773D01*
X97221735Y-43242571D01*
X97213470Y-43265671D01*
X97202980Y-43287849D01*
X97190367Y-43308893D01*
X97175753Y-43328598D01*
X97159277Y-43346777D01*
X97141098Y-43363253D01*
X97121393Y-43377867D01*
X97100349Y-43390480D01*
X97078171Y-43400970D01*
X97055071Y-43409235D01*
X97031273Y-43415196D01*
X97007004Y-43418796D01*
X96982500Y-43420000D01*
X96057500Y-43420000D01*
X96032996Y-43418796D01*
X96008727Y-43415196D01*
X95984929Y-43409235D01*
X95961829Y-43400970D01*
X95939651Y-43390480D01*
X95918607Y-43377867D01*
X95898902Y-43363253D01*
X95880723Y-43346777D01*
X95864247Y-43328598D01*
X95849633Y-43308893D01*
X95837020Y-43287849D01*
X95826530Y-43265671D01*
X95818265Y-43242571D01*
X95812304Y-43218773D01*
X95808704Y-43194504D01*
X95807500Y-43170000D01*
X95807500Y-41920000D01*
X95808704Y-41895496D01*
X95812304Y-41871227D01*
X95818265Y-41847429D01*
X95826530Y-41824329D01*
X95837020Y-41802151D01*
X95849633Y-41781107D01*
X95864247Y-41761402D01*
X95880723Y-41743223D01*
X95898902Y-41726747D01*
X95918607Y-41712133D01*
X95939651Y-41699520D01*
X95961829Y-41689030D01*
X95984929Y-41680765D01*
X96008727Y-41674804D01*
X96032996Y-41671204D01*
X96057500Y-41670000D01*
X96982500Y-41670000D01*
X97007004Y-41671204D01*
X97007004Y-41671204D01*
G37*
D16*
X96520000Y-42545000D03*
G04 #@! TD*
D12*
G04 #@! TO.C,D5*
G36*
X94032004Y-46751204D02*
X94056273Y-46754804D01*
X94080071Y-46760765D01*
X94103171Y-46769030D01*
X94125349Y-46779520D01*
X94146393Y-46792133D01*
X94166098Y-46806747D01*
X94184277Y-46823223D01*
X94200753Y-46841402D01*
X94215367Y-46861107D01*
X94227980Y-46882151D01*
X94238470Y-46904329D01*
X94246735Y-46927429D01*
X94252696Y-46951227D01*
X94256296Y-46975496D01*
X94257500Y-47000000D01*
X94257500Y-48250000D01*
X94256296Y-48274504D01*
X94252696Y-48298773D01*
X94246735Y-48322571D01*
X94238470Y-48345671D01*
X94227980Y-48367849D01*
X94215367Y-48388893D01*
X94200753Y-48408598D01*
X94184277Y-48426777D01*
X94166098Y-48443253D01*
X94146393Y-48457867D01*
X94125349Y-48470480D01*
X94103171Y-48480970D01*
X94080071Y-48489235D01*
X94056273Y-48495196D01*
X94032004Y-48498796D01*
X94007500Y-48500000D01*
X93082500Y-48500000D01*
X93057996Y-48498796D01*
X93033727Y-48495196D01*
X93009929Y-48489235D01*
X92986829Y-48480970D01*
X92964651Y-48470480D01*
X92943607Y-48457867D01*
X92923902Y-48443253D01*
X92905723Y-48426777D01*
X92889247Y-48408598D01*
X92874633Y-48388893D01*
X92862020Y-48367849D01*
X92851530Y-48345671D01*
X92843265Y-48322571D01*
X92837304Y-48298773D01*
X92833704Y-48274504D01*
X92832500Y-48250000D01*
X92832500Y-47000000D01*
X92833704Y-46975496D01*
X92837304Y-46951227D01*
X92843265Y-46927429D01*
X92851530Y-46904329D01*
X92862020Y-46882151D01*
X92874633Y-46861107D01*
X92889247Y-46841402D01*
X92905723Y-46823223D01*
X92923902Y-46806747D01*
X92943607Y-46792133D01*
X92964651Y-46779520D01*
X92986829Y-46769030D01*
X93009929Y-46760765D01*
X93033727Y-46754804D01*
X93057996Y-46751204D01*
X93082500Y-46750000D01*
X94007500Y-46750000D01*
X94032004Y-46751204D01*
X94032004Y-46751204D01*
G37*
D16*
X93545000Y-47625000D03*
D12*
G36*
X97007004Y-46751204D02*
X97031273Y-46754804D01*
X97055071Y-46760765D01*
X97078171Y-46769030D01*
X97100349Y-46779520D01*
X97121393Y-46792133D01*
X97141098Y-46806747D01*
X97159277Y-46823223D01*
X97175753Y-46841402D01*
X97190367Y-46861107D01*
X97202980Y-46882151D01*
X97213470Y-46904329D01*
X97221735Y-46927429D01*
X97227696Y-46951227D01*
X97231296Y-46975496D01*
X97232500Y-47000000D01*
X97232500Y-48250000D01*
X97231296Y-48274504D01*
X97227696Y-48298773D01*
X97221735Y-48322571D01*
X97213470Y-48345671D01*
X97202980Y-48367849D01*
X97190367Y-48388893D01*
X97175753Y-48408598D01*
X97159277Y-48426777D01*
X97141098Y-48443253D01*
X97121393Y-48457867D01*
X97100349Y-48470480D01*
X97078171Y-48480970D01*
X97055071Y-48489235D01*
X97031273Y-48495196D01*
X97007004Y-48498796D01*
X96982500Y-48500000D01*
X96057500Y-48500000D01*
X96032996Y-48498796D01*
X96008727Y-48495196D01*
X95984929Y-48489235D01*
X95961829Y-48480970D01*
X95939651Y-48470480D01*
X95918607Y-48457867D01*
X95898902Y-48443253D01*
X95880723Y-48426777D01*
X95864247Y-48408598D01*
X95849633Y-48388893D01*
X95837020Y-48367849D01*
X95826530Y-48345671D01*
X95818265Y-48322571D01*
X95812304Y-48298773D01*
X95808704Y-48274504D01*
X95807500Y-48250000D01*
X95807500Y-47000000D01*
X95808704Y-46975496D01*
X95812304Y-46951227D01*
X95818265Y-46927429D01*
X95826530Y-46904329D01*
X95837020Y-46882151D01*
X95849633Y-46861107D01*
X95864247Y-46841402D01*
X95880723Y-46823223D01*
X95898902Y-46806747D01*
X95918607Y-46792133D01*
X95939651Y-46779520D01*
X95961829Y-46769030D01*
X95984929Y-46760765D01*
X96008727Y-46754804D01*
X96032996Y-46751204D01*
X96057500Y-46750000D01*
X96982500Y-46750000D01*
X97007004Y-46751204D01*
X97007004Y-46751204D01*
G37*
D16*
X96520000Y-47625000D03*
G04 #@! TD*
D12*
G04 #@! TO.C,D4*
G36*
X94032004Y-44211204D02*
X94056273Y-44214804D01*
X94080071Y-44220765D01*
X94103171Y-44229030D01*
X94125349Y-44239520D01*
X94146393Y-44252133D01*
X94166098Y-44266747D01*
X94184277Y-44283223D01*
X94200753Y-44301402D01*
X94215367Y-44321107D01*
X94227980Y-44342151D01*
X94238470Y-44364329D01*
X94246735Y-44387429D01*
X94252696Y-44411227D01*
X94256296Y-44435496D01*
X94257500Y-44460000D01*
X94257500Y-45710000D01*
X94256296Y-45734504D01*
X94252696Y-45758773D01*
X94246735Y-45782571D01*
X94238470Y-45805671D01*
X94227980Y-45827849D01*
X94215367Y-45848893D01*
X94200753Y-45868598D01*
X94184277Y-45886777D01*
X94166098Y-45903253D01*
X94146393Y-45917867D01*
X94125349Y-45930480D01*
X94103171Y-45940970D01*
X94080071Y-45949235D01*
X94056273Y-45955196D01*
X94032004Y-45958796D01*
X94007500Y-45960000D01*
X93082500Y-45960000D01*
X93057996Y-45958796D01*
X93033727Y-45955196D01*
X93009929Y-45949235D01*
X92986829Y-45940970D01*
X92964651Y-45930480D01*
X92943607Y-45917867D01*
X92923902Y-45903253D01*
X92905723Y-45886777D01*
X92889247Y-45868598D01*
X92874633Y-45848893D01*
X92862020Y-45827849D01*
X92851530Y-45805671D01*
X92843265Y-45782571D01*
X92837304Y-45758773D01*
X92833704Y-45734504D01*
X92832500Y-45710000D01*
X92832500Y-44460000D01*
X92833704Y-44435496D01*
X92837304Y-44411227D01*
X92843265Y-44387429D01*
X92851530Y-44364329D01*
X92862020Y-44342151D01*
X92874633Y-44321107D01*
X92889247Y-44301402D01*
X92905723Y-44283223D01*
X92923902Y-44266747D01*
X92943607Y-44252133D01*
X92964651Y-44239520D01*
X92986829Y-44229030D01*
X93009929Y-44220765D01*
X93033727Y-44214804D01*
X93057996Y-44211204D01*
X93082500Y-44210000D01*
X94007500Y-44210000D01*
X94032004Y-44211204D01*
X94032004Y-44211204D01*
G37*
D16*
X93545000Y-45085000D03*
D12*
G36*
X97007004Y-44211204D02*
X97031273Y-44214804D01*
X97055071Y-44220765D01*
X97078171Y-44229030D01*
X97100349Y-44239520D01*
X97121393Y-44252133D01*
X97141098Y-44266747D01*
X97159277Y-44283223D01*
X97175753Y-44301402D01*
X97190367Y-44321107D01*
X97202980Y-44342151D01*
X97213470Y-44364329D01*
X97221735Y-44387429D01*
X97227696Y-44411227D01*
X97231296Y-44435496D01*
X97232500Y-44460000D01*
X97232500Y-45710000D01*
X97231296Y-45734504D01*
X97227696Y-45758773D01*
X97221735Y-45782571D01*
X97213470Y-45805671D01*
X97202980Y-45827849D01*
X97190367Y-45848893D01*
X97175753Y-45868598D01*
X97159277Y-45886777D01*
X97141098Y-45903253D01*
X97121393Y-45917867D01*
X97100349Y-45930480D01*
X97078171Y-45940970D01*
X97055071Y-45949235D01*
X97031273Y-45955196D01*
X97007004Y-45958796D01*
X96982500Y-45960000D01*
X96057500Y-45960000D01*
X96032996Y-45958796D01*
X96008727Y-45955196D01*
X95984929Y-45949235D01*
X95961829Y-45940970D01*
X95939651Y-45930480D01*
X95918607Y-45917867D01*
X95898902Y-45903253D01*
X95880723Y-45886777D01*
X95864247Y-45868598D01*
X95849633Y-45848893D01*
X95837020Y-45827849D01*
X95826530Y-45805671D01*
X95818265Y-45782571D01*
X95812304Y-45758773D01*
X95808704Y-45734504D01*
X95807500Y-45710000D01*
X95807500Y-44460000D01*
X95808704Y-44435496D01*
X95812304Y-44411227D01*
X95818265Y-44387429D01*
X95826530Y-44364329D01*
X95837020Y-44342151D01*
X95849633Y-44321107D01*
X95864247Y-44301402D01*
X95880723Y-44283223D01*
X95898902Y-44266747D01*
X95918607Y-44252133D01*
X95939651Y-44239520D01*
X95961829Y-44229030D01*
X95984929Y-44220765D01*
X96008727Y-44214804D01*
X96032996Y-44211204D01*
X96057500Y-44210000D01*
X96982500Y-44210000D01*
X97007004Y-44211204D01*
X97007004Y-44211204D01*
G37*
D16*
X96520000Y-45085000D03*
G04 #@! TD*
D12*
G04 #@! TO.C,R3*
G36*
X82602004Y-38496204D02*
X82626273Y-38499804D01*
X82650071Y-38505765D01*
X82673171Y-38514030D01*
X82695349Y-38524520D01*
X82716393Y-38537133D01*
X82736098Y-38551747D01*
X82754277Y-38568223D01*
X82770753Y-38586402D01*
X82785367Y-38606107D01*
X82797980Y-38627151D01*
X82808470Y-38649329D01*
X82816735Y-38672429D01*
X82822696Y-38696227D01*
X82826296Y-38720496D01*
X82827500Y-38745000D01*
X82827500Y-39995000D01*
X82826296Y-40019504D01*
X82822696Y-40043773D01*
X82816735Y-40067571D01*
X82808470Y-40090671D01*
X82797980Y-40112849D01*
X82785367Y-40133893D01*
X82770753Y-40153598D01*
X82754277Y-40171777D01*
X82736098Y-40188253D01*
X82716393Y-40202867D01*
X82695349Y-40215480D01*
X82673171Y-40225970D01*
X82650071Y-40234235D01*
X82626273Y-40240196D01*
X82602004Y-40243796D01*
X82577500Y-40245000D01*
X81652500Y-40245000D01*
X81627996Y-40243796D01*
X81603727Y-40240196D01*
X81579929Y-40234235D01*
X81556829Y-40225970D01*
X81534651Y-40215480D01*
X81513607Y-40202867D01*
X81493902Y-40188253D01*
X81475723Y-40171777D01*
X81459247Y-40153598D01*
X81444633Y-40133893D01*
X81432020Y-40112849D01*
X81421530Y-40090671D01*
X81413265Y-40067571D01*
X81407304Y-40043773D01*
X81403704Y-40019504D01*
X81402500Y-39995000D01*
X81402500Y-38745000D01*
X81403704Y-38720496D01*
X81407304Y-38696227D01*
X81413265Y-38672429D01*
X81421530Y-38649329D01*
X81432020Y-38627151D01*
X81444633Y-38606107D01*
X81459247Y-38586402D01*
X81475723Y-38568223D01*
X81493902Y-38551747D01*
X81513607Y-38537133D01*
X81534651Y-38524520D01*
X81556829Y-38514030D01*
X81579929Y-38505765D01*
X81603727Y-38499804D01*
X81627996Y-38496204D01*
X81652500Y-38495000D01*
X82577500Y-38495000D01*
X82602004Y-38496204D01*
X82602004Y-38496204D01*
G37*
D16*
X82115000Y-39370000D03*
D12*
G36*
X85577004Y-38496204D02*
X85601273Y-38499804D01*
X85625071Y-38505765D01*
X85648171Y-38514030D01*
X85670349Y-38524520D01*
X85691393Y-38537133D01*
X85711098Y-38551747D01*
X85729277Y-38568223D01*
X85745753Y-38586402D01*
X85760367Y-38606107D01*
X85772980Y-38627151D01*
X85783470Y-38649329D01*
X85791735Y-38672429D01*
X85797696Y-38696227D01*
X85801296Y-38720496D01*
X85802500Y-38745000D01*
X85802500Y-39995000D01*
X85801296Y-40019504D01*
X85797696Y-40043773D01*
X85791735Y-40067571D01*
X85783470Y-40090671D01*
X85772980Y-40112849D01*
X85760367Y-40133893D01*
X85745753Y-40153598D01*
X85729277Y-40171777D01*
X85711098Y-40188253D01*
X85691393Y-40202867D01*
X85670349Y-40215480D01*
X85648171Y-40225970D01*
X85625071Y-40234235D01*
X85601273Y-40240196D01*
X85577004Y-40243796D01*
X85552500Y-40245000D01*
X84627500Y-40245000D01*
X84602996Y-40243796D01*
X84578727Y-40240196D01*
X84554929Y-40234235D01*
X84531829Y-40225970D01*
X84509651Y-40215480D01*
X84488607Y-40202867D01*
X84468902Y-40188253D01*
X84450723Y-40171777D01*
X84434247Y-40153598D01*
X84419633Y-40133893D01*
X84407020Y-40112849D01*
X84396530Y-40090671D01*
X84388265Y-40067571D01*
X84382304Y-40043773D01*
X84378704Y-40019504D01*
X84377500Y-39995000D01*
X84377500Y-38745000D01*
X84378704Y-38720496D01*
X84382304Y-38696227D01*
X84388265Y-38672429D01*
X84396530Y-38649329D01*
X84407020Y-38627151D01*
X84419633Y-38606107D01*
X84434247Y-38586402D01*
X84450723Y-38568223D01*
X84468902Y-38551747D01*
X84488607Y-38537133D01*
X84509651Y-38524520D01*
X84531829Y-38514030D01*
X84554929Y-38505765D01*
X84578727Y-38499804D01*
X84602996Y-38496204D01*
X84627500Y-38495000D01*
X85552500Y-38495000D01*
X85577004Y-38496204D01*
X85577004Y-38496204D01*
G37*
D16*
X85090000Y-39370000D03*
G04 #@! TD*
D14*
G04 #@! TO.C,J6*
X88265000Y-59690000D03*
D15*
X90805000Y-59690000D03*
X93345000Y-59690000D03*
X95885000Y-59690000D03*
X98425000Y-59690000D03*
G04 #@! TD*
G04 #@! TO.C,J5*
X98425000Y-35306000D03*
X98425000Y-32766000D03*
X95885000Y-35306000D03*
X95885000Y-32766000D03*
X93345000Y-35306000D03*
X93345000Y-32766000D03*
X90805000Y-35306000D03*
X90805000Y-32766000D03*
X88265000Y-35306000D03*
X88265000Y-32766000D03*
X85725000Y-35306000D03*
X85725000Y-32766000D03*
X83185000Y-35306000D03*
X83185000Y-32766000D03*
X80645000Y-35306000D03*
D14*
X80645000Y-32766000D03*
G04 #@! TD*
G04 #@! TO.C,J4*
X80645000Y-78740000D03*
D15*
X80645000Y-81280000D03*
X83185000Y-78740000D03*
X83185000Y-81280000D03*
X85725000Y-78740000D03*
X85725000Y-81280000D03*
X88265000Y-78740000D03*
X88265000Y-81280000D03*
X90805000Y-78740000D03*
X90805000Y-81280000D03*
X93345000Y-78740000D03*
X93345000Y-81280000D03*
X95885000Y-78740000D03*
X95885000Y-81280000D03*
X98425000Y-78740000D03*
X98425000Y-81280000D03*
G04 #@! TD*
D12*
G04 #@! TO.C,C1*
G36*
X91454504Y-70626204D02*
X91478773Y-70629804D01*
X91502571Y-70635765D01*
X91525671Y-70644030D01*
X91547849Y-70654520D01*
X91568893Y-70667133D01*
X91588598Y-70681747D01*
X91606777Y-70698223D01*
X91623253Y-70716402D01*
X91637867Y-70736107D01*
X91650480Y-70757151D01*
X91660970Y-70779329D01*
X91669235Y-70802429D01*
X91675196Y-70826227D01*
X91678796Y-70850496D01*
X91680000Y-70875000D01*
X91680000Y-71800000D01*
X91678796Y-71824504D01*
X91675196Y-71848773D01*
X91669235Y-71872571D01*
X91660970Y-71895671D01*
X91650480Y-71917849D01*
X91637867Y-71938893D01*
X91623253Y-71958598D01*
X91606777Y-71976777D01*
X91588598Y-71993253D01*
X91568893Y-72007867D01*
X91547849Y-72020480D01*
X91525671Y-72030970D01*
X91502571Y-72039235D01*
X91478773Y-72045196D01*
X91454504Y-72048796D01*
X91430000Y-72050000D01*
X90180000Y-72050000D01*
X90155496Y-72048796D01*
X90131227Y-72045196D01*
X90107429Y-72039235D01*
X90084329Y-72030970D01*
X90062151Y-72020480D01*
X90041107Y-72007867D01*
X90021402Y-71993253D01*
X90003223Y-71976777D01*
X89986747Y-71958598D01*
X89972133Y-71938893D01*
X89959520Y-71917849D01*
X89949030Y-71895671D01*
X89940765Y-71872571D01*
X89934804Y-71848773D01*
X89931204Y-71824504D01*
X89930000Y-71800000D01*
X89930000Y-70875000D01*
X89931204Y-70850496D01*
X89934804Y-70826227D01*
X89940765Y-70802429D01*
X89949030Y-70779329D01*
X89959520Y-70757151D01*
X89972133Y-70736107D01*
X89986747Y-70716402D01*
X90003223Y-70698223D01*
X90021402Y-70681747D01*
X90041107Y-70667133D01*
X90062151Y-70654520D01*
X90084329Y-70644030D01*
X90107429Y-70635765D01*
X90131227Y-70629804D01*
X90155496Y-70626204D01*
X90180000Y-70625000D01*
X91430000Y-70625000D01*
X91454504Y-70626204D01*
X91454504Y-70626204D01*
G37*
D16*
X90805000Y-71337500D03*
D12*
G36*
X91454504Y-67651204D02*
X91478773Y-67654804D01*
X91502571Y-67660765D01*
X91525671Y-67669030D01*
X91547849Y-67679520D01*
X91568893Y-67692133D01*
X91588598Y-67706747D01*
X91606777Y-67723223D01*
X91623253Y-67741402D01*
X91637867Y-67761107D01*
X91650480Y-67782151D01*
X91660970Y-67804329D01*
X91669235Y-67827429D01*
X91675196Y-67851227D01*
X91678796Y-67875496D01*
X91680000Y-67900000D01*
X91680000Y-68825000D01*
X91678796Y-68849504D01*
X91675196Y-68873773D01*
X91669235Y-68897571D01*
X91660970Y-68920671D01*
X91650480Y-68942849D01*
X91637867Y-68963893D01*
X91623253Y-68983598D01*
X91606777Y-69001777D01*
X91588598Y-69018253D01*
X91568893Y-69032867D01*
X91547849Y-69045480D01*
X91525671Y-69055970D01*
X91502571Y-69064235D01*
X91478773Y-69070196D01*
X91454504Y-69073796D01*
X91430000Y-69075000D01*
X90180000Y-69075000D01*
X90155496Y-69073796D01*
X90131227Y-69070196D01*
X90107429Y-69064235D01*
X90084329Y-69055970D01*
X90062151Y-69045480D01*
X90041107Y-69032867D01*
X90021402Y-69018253D01*
X90003223Y-69001777D01*
X89986747Y-68983598D01*
X89972133Y-68963893D01*
X89959520Y-68942849D01*
X89949030Y-68920671D01*
X89940765Y-68897571D01*
X89934804Y-68873773D01*
X89931204Y-68849504D01*
X89930000Y-68825000D01*
X89930000Y-67900000D01*
X89931204Y-67875496D01*
X89934804Y-67851227D01*
X89940765Y-67827429D01*
X89949030Y-67804329D01*
X89959520Y-67782151D01*
X89972133Y-67761107D01*
X89986747Y-67741402D01*
X90003223Y-67723223D01*
X90021402Y-67706747D01*
X90041107Y-67692133D01*
X90062151Y-67679520D01*
X90084329Y-67669030D01*
X90107429Y-67660765D01*
X90131227Y-67654804D01*
X90155496Y-67651204D01*
X90180000Y-67650000D01*
X91430000Y-67650000D01*
X91454504Y-67651204D01*
X91454504Y-67651204D01*
G37*
D16*
X90805000Y-68362500D03*
G04 #@! TD*
D17*
G04 #@! TO.C,U1*
X93595000Y-64360000D03*
X94245000Y-64360000D03*
X94895000Y-64360000D03*
X95545000Y-64360000D03*
X96195000Y-64360000D03*
X96845000Y-64360000D03*
X97495000Y-64360000D03*
X98145000Y-64360000D03*
X98795000Y-64360000D03*
X99445000Y-64360000D03*
X99445000Y-70260000D03*
X98795000Y-70260000D03*
X98145000Y-70260000D03*
X97495000Y-70260000D03*
X96845000Y-70260000D03*
X96195000Y-70260000D03*
X95545000Y-70260000D03*
X94895000Y-70260000D03*
X94245000Y-70260000D03*
X93595000Y-70260000D03*
G04 #@! TD*
M02*
