M48
;DRILL file {KiCad (5.0.0)} date 08/08/18 21:20:58
;FORMAT={-:-/ absolute / inch / decimal}
FMAT,2
INCH,TZ
T1C0.0157
T2C0.0394
T3C0.0400
%
G90
G05
M72
T1
X3.Y-1.475
X3.285Y-2.185
X3.3Y-1.925
X3.315Y-2.215
X3.35Y-1.475
X3.35Y-2.25
X3.38Y-2.285
X3.525Y-2.05
X3.575Y-2.6
X3.625Y-1.875
X3.625Y-2.5
X3.65Y-2.825
X3.675Y-2.45
X3.7Y-1.5
X3.7Y-2.825
X3.75Y-2.15
X3.75Y-2.825
X3.8Y-2.15
X3.8Y-2.825
X3.825Y-2.45
X3.85Y-2.15
X3.875Y-2.45
X3.9Y-2.15
T2
X3.175Y-1.29
X3.175Y-1.39
X3.275Y-1.29
X3.275Y-1.39
X3.375Y-1.29
X3.375Y-1.39
X3.475Y-1.29
X3.475Y-1.39
X3.575Y-1.29
X3.575Y-1.39
X3.675Y-1.29
X3.675Y-1.39
X3.775Y-1.29
X3.775Y-1.39
X3.875Y-1.29
X3.875Y-1.39
X3.175Y-3.1
X3.175Y-3.2
X3.275Y-3.1
X3.275Y-3.2
X3.375Y-3.1
X3.375Y-3.2
X3.475Y-3.1
X3.475Y-3.2
X3.575Y-3.1
X3.575Y-3.2
X3.675Y-3.1
X3.675Y-3.2
X3.775Y-3.1
X3.775Y-3.2
X3.875Y-3.1
X3.875Y-3.2
X3.475Y-1.575
X3.475Y-1.675
X3.475Y-1.775
X3.475Y-2.35
X3.575Y-2.35
X3.675Y-2.35
X3.775Y-2.35
X3.875Y-2.35
T3
X3.1Y-1.825
X3.1Y-1.925
X3.1Y-2.025
X3.1Y-2.125
X3.1Y-2.225
X3.1Y-2.325
X3.1Y-2.425
X3.1Y-2.525
X3.1Y-2.625
X3.1Y-2.725
X3.2Y-1.825
X3.2Y-1.925
X3.2Y-2.025
X3.2Y-2.125
X3.2Y-2.225
X3.2Y-2.325
X3.2Y-2.425
X3.2Y-2.525
X3.2Y-2.625
X3.2Y-2.725
T0
M30
